<svg width="31" height="31" viewBox="0 0 31 31" fill="none" xmlns="http://www.w3.org/2000/svg">
<path d="M4.59652 26.17C-1.25198 20.3215 -1.25198 10.8053 4.59652 4.95682C10.445 -0.891684 19.9612 -0.891684 25.8097 4.95682C31.6582 10.8053 31.6582 20.3215 25.8097 26.17C19.9612 32.0185 10.445 32.0185 4.59652 26.17Z" fill="#FFE76B"/>
<path d="M25.8098 26.17C31.6583 20.3215 31.6583 10.8053 25.8098 4.95679L4.59655 26.17C10.4451 32.0185 19.9612 32.0185 25.8098 26.17Z" fill="#FFD400"/>
<path d="M7.12388 23.6426C2.66898 19.1878 2.66898 11.9391 7.12388 7.48415C11.5788 3.02926 18.8275 3.02926 23.2824 7.48415C27.7373 11.9391 27.7373 19.1878 23.2824 23.6426C18.8275 28.0975 11.5788 28.0975 7.12388 23.6426Z" fill="#FFC700"/>
<rect x="13.8013" y="7.77051" width="4.3404" height="6.60205" rx="2.1702" transform="rotate(22.3704 13.8013 7.77051)" fill="#FFE76B"/>
<path fill-rule="evenodd" clip-rule="evenodd" d="M20.5702 17.0367C20.564 18.5812 19.9684 20.0011 18.8944 21.0336C17.9326 21.958 16.6632 22.5005 15.3261 22.5583C13.989 22.6162 12.6769 22.1855 11.6378 21.3477C10.5987 20.5099 9.90465 19.323 9.68685 18.0114C9.46905 16.6997 9.74258 15.3543 10.4558 14.2295L10.3506 14.1868C9.82309 14.0001 9.3911 13.6142 9.14846 13.1129C8.90581 12.6116 8.87212 12.0355 9.05469 11.5097C9.23727 10.984 9.62136 10.551 10.1235 10.3049C10.6257 10.0587 11.2053 10.0194 11.7365 10.1954L11.7427 10.1973L11.7483 10.1999L13.1378 10.6851L16.1843 11.7515L16.9245 12.0102C19.1149 12.7461 20.5803 14.7644 20.5702 17.0367Z" fill="#FFE76B"/>
<path d="M23.2824 23.6426C27.7373 19.1877 27.7373 11.939 23.2824 7.48413L7.12392 23.6426C11.5788 28.0975 18.8275 28.0975 23.2824 23.6426Z" fill="#FF9F00"/>
<mask id="mask0_32_2411" style="mask-type:alpha" maskUnits="userSpaceOnUse" x="7" y="7" width="20" height="20">
<path d="M23.2824 23.6426C27.7373 19.1877 27.7373 11.939 23.2824 7.48413L7.12392 23.6426C11.5788 28.0975 18.8275 28.0975 23.2824 23.6426Z" fill="#FF9F40"/>
</mask>
<g mask="url(#mask0_32_2411)">
<rect x="13.8013" y="7.77051" width="4.3404" height="6.60205" rx="2.1702" transform="rotate(22.3704 13.8013 7.77051)" fill="#FFC700"/>
<path fill-rule="evenodd" clip-rule="evenodd" d="M20.5702 17.0367C20.564 18.5812 19.9684 20.0011 18.8944 21.0336C17.9326 21.958 16.6632 22.5005 15.3261 22.5583C13.989 22.6162 12.6769 22.1855 11.6378 21.3477C10.5987 20.5099 9.90465 19.323 9.68685 18.0114C9.46905 16.6997 9.74258 15.3543 10.4558 14.2295L10.3506 14.1868C9.82309 14.0001 9.3911 13.6142 9.14846 13.1129C8.90581 12.6116 8.87212 12.0355 9.05469 11.5097C9.23727 10.984 9.62136 10.551 10.1235 10.3049C10.6257 10.0587 11.2053 10.0194 11.7365 10.1954L11.7427 10.1973L11.7483 10.1999L13.1378 10.6851L16.1843 11.7515L16.9245 12.0102C19.1149 12.7461 20.5803 14.7644 20.5702 17.0367Z" fill="#FFC700"/>
</g>
</svg>
