<svg width="16" height="14" viewBox="0 0 16 14" fill="none" xmlns="http://www.w3.org/2000/svg">
<path d="M15.1773 1.89054C14.9337 1.78906 14.6654 1.76239 14.4066 1.81391C14.1478 1.86544 13.9102 1.99283 13.724 2.17987L12 3.90387L8.94267 0.846536C8.69263 0.596574 8.35355 0.456154 8 0.456154C7.64645 0.456154 7.30737 0.596574 7.05733 0.846536L4 3.90387L2.276 2.17987C2.08953 1.99346 1.85198 1.86651 1.59338 1.81509C1.33477 1.76367 1.06673 1.79007 0.823127 1.89097C0.579528 1.99186 0.37131 2.16271 0.224798 2.38192C0.0782854 2.60114 5.62991e-05 2.85887 0 3.12254L0 10.1799C0.00105857 11.0636 0.352588 11.9108 0.97748 12.5357C1.60237 13.1606 2.4496 13.5121 3.33333 13.5132H12.6667C13.5504 13.5121 14.3976 13.1606 15.0225 12.5357C15.6474 11.9108 15.9989 11.0636 16 10.1799V3.12254C16.0001 2.85885 15.9219 2.60106 15.7755 2.38177C15.6291 2.16248 15.4209 1.99153 15.1773 1.89054Z" fill="#9B9B9B"/>
</svg>
