<svg xmlns="http://www.w3.org/2000/svg" xmlns:xlink="http://www.w3.org/1999/xlink" viewBox="0 0 1021.2 229.12"><defs><style>.cls-1{fill:url(#linear-gradient);}</style><linearGradient id="linear-gradient" x1="213.55" y1="-167.32" x2="795.91" y2="415.04" gradientUnits="userSpaceOnUse"><stop offset="0" stop-color="#ff00a1"/><stop offset="0.51" stop-color="#8a4eac"/><stop offset="0.97" stop-color="#00f8e5"/></linearGradient></defs><g id="Lager_2" data-name="Lager 2"><g id="Layer_1" data-name="Layer 1"><path class="cls-1" d="M717.67,194.2h0Zm.42,0h0ZM755,68.44h-8.14a17.65,17.65,0,0,0-16.67,11.94c-6.56,19.24-15,59.19-21.9,79-2.07,5.9-5.48,5.91-7.56,0-7-19.77-16.54-59.71-23.11-79a17.65,17.65,0,0,0-16.66-11.94h-7.34a10.52,10.52,0,0,0-10,14c8.5,24.7,25.55,74.72,33.47,98a19.9,19.9,0,0,0,18.44,13.72c2.85.05,5.68.08,8.33.1h.84c2.65,0,5.48,0,8.34-.1a19.9,19.9,0,0,0,18.43-13.72c7.93-23.27,25-73.3,33.48-98A10.52,10.52,0,0,0,755,68.44Zm68.85,101.29V150.25a8.06,8.06,0,0,1,8.06-8.07H868c3,0,5.22-.79,6.79-2.41s2.39-6,2.39-10.23a23.34,23.34,0,0,0-1-7.11,4.9,4.9,0,0,0-4.67-3.39h-47.7V103.53A10.2,10.2,0,0,1,834,93.33h35.71c7.57,0,13.7-8.85,13.7-16.42,0-3.89,0-7.33,0-8.37l-72.51,0c-5.24,0-9.2,1.41-12.11,4.32s-4.32,6.87-4.32,12c0,1,.08,88.78.08,109.44,12.17.09,53.4,0,75.16,0a13.7,13.7,0,0,0,13.68-13.72c0-4,0-9.88,0-10.87Zm-260.47-76H599c7.57,0,13.7-5.7,13.7-16.85V68.54l-72.52,0c-5.24,0-9.2,1.41-12.11,4.32s-4.32,6.87-4.32,12c0,1,.09,88.78.09,109.44,12.16.09,53.39,0,75.16,0a13.69,13.69,0,0,0,13.67-13.72c0-4,0-9.88,0-10.87H553.14V150.36a8.07,8.07,0,0,1,8.07-8.07h36.13c3,0,5.22-.79,6.79-2.41s2.39-6.08,2.39-10.34a23.34,23.34,0,0,0-1-7.11,4.9,4.9,0,0,0-4.67-3.39h-47.7V104A10.2,10.2,0,0,1,563.34,93.76Zm456.26,87.35c-6-8.6-22.42-31.8-22.06-34.28s12.92-13.2,16-17.89a35.73,35.73,0,0,0,5.81-20.1c0-13.23-4.56-23.46-13.93-31.3s-24-11.93-43.14-11.93c-7.22,0-41,1.75-44.19,3,0,1-.09,104.93.24,126.24,2.67,0,7.56.06,10.85,0h5.34a13.79,13.79,0,0,0,13.79-13.77c0-11,.06-24.55.06-24.55,0-2.86,2.78-5.16,5.64-5.16h7.54a9.2,9.2,0,0,1,7.87,4.37c.12.19,15.1,27.11,22.83,39.07h20.18A8.73,8.73,0,0,0,1019.6,181.11Zm-38.69-56c-4.64,3.35-10.52,5.05-17.5,5.05h-15V89.61c5.35-.67,6-.77,8.33-1,1.66-.15,3.4-.23,5.33-.23,8.79,0,15.17,1.67,19.53,5.15,4.56,3.65,6.88,9,6.88,15.76S986,121.53,980.91,125.16Zm-490.82,56c-6-8.6-22.42-31.8-22.06-34.28s12.92-13.2,16-17.89a35.73,35.73,0,0,0,5.81-20.1c0-13.23-4.56-23.46-13.93-31.3S452,65.61,432.8,65.61c-7.22,0-39.42,1.18-44.19,3,0,1-.09,104.93.24,126.24,2.67,0,7.56.06,10.85,0h5.35a13.8,13.8,0,0,0,13.79-13.77c0-11,.05-24.55.05-24.55,0-2.86,2.78-5.16,5.64-5.16h7.54a9.2,9.2,0,0,1,7.87,4.37c.12.19,15.1,27.11,22.83,39.07H483A8.73,8.73,0,0,0,490.09,181.11Zm-38.69-56c-4.64,3.35-10.52,5.05-17.5,5.05h-15V89.61c5.35-.67,6-.77,8.33-1,1.66-.15,3.4-.23,5.33-.23,8.79,0,15.17,1.67,19.53,5.15,4.56,3.65,6.88,9,6.88,15.76S456.44,121.53,451.4,125.16Zm-148.52-31h41.71c3,0,5.26-.82,6.91-2.52s2.44-7.46,2.44-11.87c0-2.66,0-11,0-11l-73,0c-5.25,0-9.21,1.41-12.11,4.32s-4.32,6.87-4.32,12.11V194.3l16.71,0a13.74,13.74,0,0,0,13.74-13.73c0-11.31,0-24.89,0-24.89a8.42,8.42,0,0,1,8.42-8.41h34c3,0,5.3-.8,7-2.45s2.32-5.37,2.32-9.75c0-2.61,0-8.28,0-10.66H294.46V102.55A8.42,8.42,0,0,1,302.88,94.14ZM88.36,146.33,63.43,130.72a5.57,5.57,0,0,0-5.91,9.44l15.5,9.7L56.6,156.17a5.57,5.57,0,0,0,4,10.39l26.81-10.32a5.56,5.56,0,0,0,1-9.91Zm59.7-.57a36.72,36.72,0,0,0-7.7-5.44,26,26,0,0,0-32.43,6.83,6.81,6.81,0,0,0,1,9.46,6.69,6.69,0,0,0,1.21.77,6.58,6.58,0,0,0,2.95.69,6.75,6.75,0,0,0,5.28-2.55,12.65,12.65,0,0,1,16-3.06,24.47,24.47,0,0,1,4.92,3.6,6.23,6.23,0,0,0,1.38.91,6.67,6.67,0,0,0,8.13-1.74A6.82,6.82,0,0,0,148.06,145.76Zm0,0a36.72,36.72,0,0,0-7.7-5.44,26,26,0,0,0-32.43,6.83,6.81,6.81,0,0,0,1,9.46,6.69,6.69,0,0,0,1.21.77,6.58,6.58,0,0,0,2.95.69,6.75,6.75,0,0,0,5.28-2.55,12.65,12.65,0,0,1,16-3.06,24.47,24.47,0,0,1,4.92,3.6,6.23,6.23,0,0,0,1.38.91,6.67,6.67,0,0,0,8.13-1.74A6.82,6.82,0,0,0,148.06,145.76Zm-59.7.57L63.43,130.72a5.57,5.57,0,0,0-5.91,9.44l15.5,9.7L56.6,156.17a5.57,5.57,0,0,0,4,10.39l26.81-10.32a5.56,5.56,0,0,0,1-9.91Zm59.7-.57a36.72,36.72,0,0,0-7.7-5.44,26,26,0,0,0-32.43,6.83,6.81,6.81,0,0,0,1,9.46,6.69,6.69,0,0,0,1.21.77,6.58,6.58,0,0,0,2.95.69,6.75,6.75,0,0,0,5.28-2.55,12.65,12.65,0,0,1,16-3.06,24.47,24.47,0,0,1,4.92,3.6,6.23,6.23,0,0,0,1.38.91,6.67,6.67,0,0,0,8.13-1.74A6.82,6.82,0,0,0,148.06,145.76Zm-59.7.57L63.43,130.72a5.57,5.57,0,0,0-5.91,9.44l15.5,9.7L56.6,156.17a5.57,5.57,0,0,0,4,10.39l26.81-10.32a5.56,5.56,0,0,0,1-9.91Zm0,0L63.43,130.72a5.57,5.57,0,0,0-5.91,9.44l15.5,9.7L56.6,156.17a5.57,5.57,0,0,0,4,10.39l26.81-10.32a5.56,5.56,0,0,0,1-9.91Zm59.7-.57a36.72,36.72,0,0,0-7.7-5.44,26,26,0,0,0-32.43,6.83,6.81,6.81,0,0,0,1,9.46,6.69,6.69,0,0,0,1.21.77,6.58,6.58,0,0,0,2.95.69,6.75,6.75,0,0,0,5.28-2.55,12.65,12.65,0,0,1,16-3.06,24.47,24.47,0,0,1,4.92,3.6,6.23,6.23,0,0,0,1.38.91,6.67,6.67,0,0,0,8.13-1.74A6.82,6.82,0,0,0,148.06,145.76Zm0,0a36.72,36.72,0,0,0-7.7-5.44,26,26,0,0,0-32.43,6.83,6.81,6.81,0,0,0,1,9.46,6.69,6.69,0,0,0,1.21.77,6.58,6.58,0,0,0,2.95.69,6.75,6.75,0,0,0,5.28-2.55,12.65,12.65,0,0,1,16-3.06,24.47,24.47,0,0,1,4.92,3.6,6.23,6.23,0,0,0,1.38.91,6.67,6.67,0,0,0,8.13-1.74A6.82,6.82,0,0,0,148.06,145.76Zm-59.7.57L63.43,130.72a5.57,5.57,0,0,0-5.91,9.44l15.5,9.7L56.6,156.17a5.57,5.57,0,0,0,4,10.39l26.81-10.32a5.56,5.56,0,0,0,1-9.91Zm40.72-88.9-3.36-1.18h0l-8.59-3-5.77-2L77,39.06h0l-9-3.18L62.61,34h0L45.46,28l-.09,0-.11,0A34.34,34.34,0,0,0,22.88,92.83l1.7.7A88.41,88.41,0,0,0,160.91,204.17c17.35-16.79,27-39.89,27.07-65A86,86,0,0,0,129.08,57.43ZM99.37,213.72A73.05,73.05,0,0,1,47,89.83a2.53,2.53,0,0,0-1-4.17L28.33,78.42a18.94,18.94,0,1,1,12-35.92L124.06,72c28.86,9.71,48.66,36.67,48.53,67.11C172.4,183.64,137.49,213.72,99.37,213.72Zm48.69-68a36.72,36.72,0,0,0-7.7-5.44,26,26,0,0,0-32.43,6.83,6.81,6.81,0,0,0,1,9.46,6.69,6.69,0,0,0,1.21.77,6.58,6.58,0,0,0,2.95.69,6.75,6.75,0,0,0,5.28-2.55,12.65,12.65,0,0,1,16-3.06,24.47,24.47,0,0,1,4.92,3.6,6.23,6.23,0,0,0,1.38.91,6.67,6.67,0,0,0,8.13-1.74A6.82,6.82,0,0,0,148.06,145.76Zm-59.7.57L63.43,130.72a5.57,5.57,0,0,0-5.91,9.44l15.5,9.7L56.6,156.17a5.57,5.57,0,0,0,4,10.39l26.81-10.32a5.56,5.56,0,0,0,1-9.91Zm0,0L63.43,130.72a5.57,5.57,0,0,0-5.91,9.44l15.5,9.7L56.6,156.17a5.57,5.57,0,0,0,4,10.39l26.81-10.32a5.56,5.56,0,0,0,1-9.91Zm59.7-.57a36.72,36.72,0,0,0-7.7-5.44,26,26,0,0,0-32.43,6.83,6.81,6.81,0,0,0,1,9.46,6.69,6.69,0,0,0,1.21.77,6.58,6.58,0,0,0,2.95.69,6.75,6.75,0,0,0,5.28-2.55,12.65,12.65,0,0,1,16-3.06,24.47,24.47,0,0,1,4.92,3.6,6.23,6.23,0,0,0,1.38.91,6.67,6.67,0,0,0,8.13-1.74A6.82,6.82,0,0,0,148.06,145.76Zm0,0a36.72,36.72,0,0,0-7.7-5.44,26,26,0,0,0-32.43,6.83,6.81,6.81,0,0,0,1,9.46,6.69,6.69,0,0,0,1.21.77,6.58,6.58,0,0,0,2.95.69,6.75,6.75,0,0,0,5.28-2.55,12.65,12.65,0,0,1,16-3.06,24.47,24.47,0,0,1,4.92,3.6,6.23,6.23,0,0,0,1.38.91,6.67,6.67,0,0,0,8.13-1.74A6.82,6.82,0,0,0,148.06,145.76Zm-59.7.57L63.43,130.72a5.57,5.57,0,0,0-5.91,9.44l15.5,9.7L56.6,156.17a5.57,5.57,0,0,0,4,10.39l26.81-10.32a5.56,5.56,0,0,0,1-9.91Zm59.7-.57a36.72,36.72,0,0,0-7.7-5.44,26,26,0,0,0-32.43,6.83,6.81,6.81,0,0,0,1,9.46,6.69,6.69,0,0,0,1.21.77,6.58,6.58,0,0,0,2.95.69,6.75,6.75,0,0,0,5.28-2.55,12.65,12.65,0,0,1,16-3.06,24.47,24.47,0,0,1,4.92,3.6,6.23,6.23,0,0,0,1.38.91,6.67,6.67,0,0,0,8.13-1.74A6.82,6.82,0,0,0,148.06,145.76Zm-59.7.57L63.43,130.72a5.57,5.57,0,0,0-5.91,9.44l15.5,9.7L56.6,156.17a5.57,5.57,0,0,0,4,10.39l26.81-10.32a5.56,5.56,0,0,0,1-9.91Zm41.38-128.1A35.75,35.75,0,0,0,85.4,2.57,29.77,29.77,0,0,0,68.46,20L62.61,34l-.27.66,14,5.84.6-1.45,5.59-13.42.15-.39a14.77,14.77,0,0,1,8.52-8.66,20.55,20.55,0,0,1,25.19,8.89,14.71,14.71,0,0,1,1.27,11.74l-6.32,14-.28.63,13.83,6.25.82-1.82,5.92-13.1.24-.59A29.66,29.66,0,0,0,129.74,18.23Z"/></g></g></svg>